<?xml version="1.0" encoding="utf-8"?>
<!-- Generator: Adobe Illustrator 23.0.2, SVG Export Plug-In . SVG Version: 6.00 Build 0)  -->
<svg version="1.1" id="Layer_1" xmlns="http://www.w3.org/2000/svg" xmlns:xlink="http://www.w3.org/1999/xlink" x="0px" y="0px"
	 viewBox="0 0 1445.7 2012.6" style="enable-background:new 0 0 1445.7 2012.6;" xml:space="preserve">
<style type="text/css">
	.st0{fill:#120907;}
	.st1{fill:#FFFFFF;}
	.st2{clip-path:url(#SVGID_2_);}
	.st3{clip-path:url(#SVGID_4_);}
	.st4{clip-path:url(#SVGID_6_);}
	.st5{clip-path:url(#SVGID_8_);}
	.st6{clip-path:url(#SVGID_10_);}
	.st7{clip-path:url(#SVGID_12_);}
	.st8{clip-path:url(#SVGID_14_);}
	.st9{clip-path:url(#SVGID_16_);}
</style>
<title>Artboard 1</title>
<rect class="st0" width="1445.7" height="2012.6"/>
<rect x="997.1" y="915.2" class="st1" width="75.5" height="79.4"/>
<g>
	<defs>
		<rect id="SVGID_1_" width="1445.7" height="2012.6"/>
	</defs>
	<clipPath id="SVGID_2_">
		<use xlink:href="#SVGID_1_"  style="overflow:visible;"/>
	</clipPath>
	<g class="st2">
		<path class="st1" d="M943.8,746.1c-9.6,8.8-20.1,16.8-31.1,23.7c-11.4,7.2-22.1,14.2-32.1,21.1c-19.7,13.5-38.3,26.7-56,39.7
			c-17,12.4-32.5,26.7-46.2,42.6c-13.2,15.6-23.8,33.3-31.1,52.4c-7.7,19.5-11.5,42.5-11.5,69h0.1l120.2-80h0.1
			c11.1-15.2,24.1-28.8,38.9-40.4c14.9-11.7,30.2-22.7,45.9-32.8s31.4-20.5,46.9-30.9c15.1-10.1,29.1-21.7,41.6-34.8
			c12.3-12.8,22.2-27.7,29.5-43.9c7.4-16.5,11.1-36.2,11.1-59.2c0-22.1-4.3-42.1-12.8-59.8c-8.1-17.3-19.9-32.6-34.4-44.9
			c-14.8-12.4-31.8-21.9-50.2-28c-19.3-6.6-39.6-9.9-60-9.8c-27.5,0-51.9,4.7-73.1,14c-21.2,9.3-38.8,22.3-52.8,39
			c-14,16.7-24.5,36.2-31.5,58.5c-7,22.3-10,46.5-9.1,72.6h89.2c0-12.3,1.2-24.7,3.6-36.8c2.2-11.9,6.3-23.3,12.1-33.8
			c5.4-9.9,13.2-18.4,22.6-24.7c9.4-6.3,20.9-9.4,34.4-9.4c20.1,0,36.6,6.2,49.5,18.5s19.3,29.6,19.3,51.7c0,13.9-3.2,26.2-9.5,37.1
			C961.1,727.7,953.1,737.5,943.8,746.1"/>
		<path class="st1" d="M1255,607.5c4.3-0.8,8.6-1.3,13-1.3c12.7,0,23.4,2.8,32.1,8.5c8.8,5.7,16.2,13.2,21.6,22.1
			c5.9,9.6,10.2,20,12.8,30.9c2.8,11.5,5,23.1,6.6,34.8c1.5,11.3,2.4,22.7,2.6,34.2c0.2,11.1,0.3,20.5,0.3,28.3
			c0,13-0.4,28.7-1.3,47.2c-0.5,11-1.8,22-3.7,32.9h92.3c3.9-23.5,5.8-50.1,5.8-80c0-44.2-4.5-81.4-13.4-111.6
			c-9-30.1-21.2-54.3-36.7-72.5c-15.5-18.2-33.4-31.2-53.8-39c-20.8-7.9-42.9-11.9-65.2-11.7c-4.4,0-8.7,0.2-13,0.5L1255,607.5z"/>
		<path class="st1" d="M1283.3,926c-5,1-10.1,1.5-15.3,1.5c-18.8,0-33.2-6.1-43.3-18.2c-10.1-12.1-17.4-26.8-22-43.9
			c-4.6-17.4-7.4-35.3-8.2-53.3c-0.9-18.4-1.3-34.1-1.3-47.2c0-7.8,0.1-17.2,0.3-28.3c0.2-11.1,1-22.4,2.3-34.2
			c0.6-5.5,1.4-11,2.4-16.5h-92.1c-4,23.2-6,49.5-6,78.9c0,45.5,4.5,83.6,13.4,114.2c9,30.6,21.1,55,36.4,73.2
			c15.3,18.2,33.1,31.2,53.4,39c20.6,7.9,42.5,11.8,64.6,11.7c5.2,0,10.2-0.2,15.3-0.6V926z"/>
	</g>
</g>
<rect x="268.1" y="915.2" class="st1" width="75.5" height="79.4"/>
<g>
	<defs>
		<rect id="SVGID_3_" width="1445.7" height="2012.6"/>
	</defs>
	<clipPath id="SVGID_4_">
		<use xlink:href="#SVGID_3_"  style="overflow:visible;"/>
	</clipPath>
	<g class="st3">
		<path class="st1" d="M214.7,746.1c-9.6,8.8-20.1,16.8-31.1,23.7c-11.4,7.2-22.1,14.2-32.1,21.1c-19.7,13.5-38.4,26.7-56.1,39.7
			c-17,12.4-32.5,26.7-46.2,42.6c-13.2,15.6-23.8,33.3-31.1,52.4c-7.6,19.5-11.5,42.5-11.5,69h0.1l120.2-80h0.1
			c11.1-15.2,24.1-28.8,38.9-40.4c14.9-11.7,30.2-22.7,45.9-32.8s31.4-20.5,46.9-30.9c15.1-10.1,29.1-21.7,41.6-34.8
			c12.3-12.8,22.2-27.7,29.5-43.9c7.4-16.5,11.1-36.2,11.1-59.2c0-22.1-4.3-42.1-12.8-59.8c-8.1-17.3-19.9-32.6-34.4-44.9
			c-14.8-12.4-31.8-21.9-50.2-28c-19.3-6.6-39.6-9.9-60-9.8c-27.5,0-51.9,4.7-73.1,14c-21.2,9.3-38.8,22.3-52.8,39
			c-14,16.7-24.5,36.2-31.5,58.5s-10,46.5-9.2,72.6h89.2c0-12.3,1.2-24.7,3.6-36.8c2.2-11.8,6.3-23.3,12.1-33.8
			c5.5-9.9,13.2-18.4,22.6-24.7c9.4-6.3,20.9-9.4,34.4-9.4c20.1,0,36.6,6.2,49.5,18.5c12.9,12.4,19.4,29.6,19.4,51.7
			c0,13.9-3.2,26.2-9.5,37.1C232,727.7,224,737.5,214.7,746.1"/>
		<path class="st1" d="M526,607.5c4.3-0.8,8.6-1.3,13-1.3c12.7,0,23.4,2.8,32.1,8.5c8.8,5.7,16.2,13.2,21.6,22.1
			c5.9,9.6,10.2,20,12.8,30.9c2.8,11.5,5,23.1,6.6,34.8c1.5,11.3,2.4,22.7,2.6,34.2c0.2,11.1,0.3,20.5,0.3,28.3
			c0,13-0.4,28.7-1.3,47.2c-0.5,11-1.8,22-3.7,32.9h92.3c3.9-23.5,5.8-50.1,5.8-80c0-44.2-4.5-81.4-13.4-111.6
			c-9-30.1-21.2-54.3-36.7-72.5c-15.5-18.2-33.4-31.2-53.8-39c-20.8-7.9-43-11.9-65.2-11.7c-4.4,0-8.7,0.2-13,0.5L526,607.5z"/>
		<path class="st1" d="M554.2,926c-5,1-10.1,1.5-15.2,1.5c-18.8,0-33.2-6.1-43.3-18.2c-10-12.1-17.4-26.8-22-43.9
			c-4.6-17.4-7.4-35.3-8.2-53.3c-0.9-18.4-1.3-34.1-1.3-47.2c0-7.8,0.1-17.2,0.3-28.3c0.2-11.1,1-22.4,2.3-34.2
			c0.6-5.5,1.4-11,2.4-16.5h-92.1c-4,23.2-6,49.5-6,78.9c0,45.5,4.5,83.6,13.5,114.2c9,30.6,21.1,55,36.4,73.2
			c15.3,18.2,33.1,31.2,53.4,39c20.6,7.9,42.5,11.8,64.6,11.7c5.2,0,10.2-0.2,15.2-0.6L554.2,926z"/>
	</g>
</g>
<rect x="997.1" y="1388.2" class="st1" width="75.5" height="79.4"/>
<g>
	<defs>
		<rect id="SVGID_5_" width="1445.7" height="2012.6"/>
	</defs>
	<clipPath id="SVGID_6_">
		<use xlink:href="#SVGID_5_"  style="overflow:visible;"/>
	</clipPath>
	<g class="st4">
		<path class="st1" d="M943.8,1219c-9.6,8.9-20.1,16.8-31.1,23.8c-11.4,7.2-22.1,14.2-32.1,21.1c-19.7,13.4-38.3,26.7-56,39.7
			c-17,12.4-32.5,26.7-46.2,42.6c-13.2,15.6-23.8,33.3-31.1,52.4c-7.7,19.5-11.5,42.5-11.5,69h0.1l120.2-80h0.1
			c11.1-15.2,24.1-28.7,38.9-40.4c14.9-11.7,30.2-22.7,45.9-32.8c15.7-10.2,31.4-20.5,46.9-30.9c15.1-10.1,29.1-21.7,41.6-34.8
			c12.3-12.8,22.2-27.7,29.5-43.9c7.4-16.5,11.1-36.2,11.1-59.2c0-22.1-4.3-42.1-12.8-59.8c-8.1-17.3-19.9-32.6-34.4-44.9
			c-14.8-12.4-31.8-21.9-50.2-28c-19.3-6.6-39.6-9.9-60-9.8c-27.5,0-51.9,4.7-73.1,14c-21.2,9.3-38.8,22.3-52.8,39
			c-14,16.7-24.5,36.2-31.5,58.6c-7,22.3-10,46.5-9.1,72.6h89.2c0-12.3,1.2-24.6,3.6-36.8c2.2-11.9,6.3-23.3,12.1-33.8
			c5.4-9.9,13.2-18.4,22.6-24.7c9.4-6.3,20.9-9.4,34.4-9.4c20.1,0,36.6,6.2,49.5,18.6s19.3,29.6,19.3,51.7c0,13.9-3.2,26.2-9.5,37.1
			C961.1,1200.7,953.1,1210.5,943.8,1219"/>
		<path class="st1" d="M1255,1080.4c4.3-0.8,8.6-1.2,13-1.3c12.7,0,23.4,2.8,32.1,8.5c8.8,5.7,16.2,13.2,21.6,22.1
			c5.9,9.6,10.2,20,12.8,30.9c2.8,11.5,5,23.1,6.6,34.8c1.5,11.3,2.4,22.7,2.6,34.2c0.2,11.1,0.3,20.5,0.3,28.3
			c0,13-0.4,28.7-1.3,47.2c-0.5,11-1.8,22-3.7,32.8h92.3c3.9-23.5,5.8-50.1,5.8-80c0-44.2-4.5-81.4-13.4-111.6s-21.2-54.3-36.7-72.5
			c-15.5-18.2-33.4-31.2-53.8-39c-20.8-7.9-42.9-11.9-65.2-11.7c-4.4,0-8.7,0.2-13,0.5L1255,1080.4z"/>
		<path class="st1" d="M1283.3,1399c-5,1-10.1,1.5-15.3,1.5c-18.8,0-33.2-6.1-43.3-18.2c-10.1-12.1-17.4-26.8-22-43.9
			c-4.6-17.4-7.4-35.3-8.2-53.3c-0.9-18.4-1.3-34.1-1.3-47.2c0-7.8,0.1-17.2,0.3-28.3s1-22.4,2.3-34.2c0.6-5.5,1.4-11,2.4-16.4
			h-92.1c-4,23.2-6,49.4-6,78.9c0,45.5,4.5,83.6,13.4,114.2c9,30.6,21.1,55,36.4,73.2c15.3,18.2,33.1,31.2,53.4,39
			c20.6,7.9,42.5,11.8,64.6,11.7c5.2,0,10.2-0.2,15.3-0.6V1399z"/>
	</g>
</g>
<rect x="268.1" y="1388.2" class="st1" width="75.5" height="79.4"/>
<g>
	<defs>
		<rect id="SVGID_7_" width="1445.7" height="2012.6"/>
	</defs>
	<clipPath id="SVGID_8_">
		<use xlink:href="#SVGID_7_"  style="overflow:visible;"/>
	</clipPath>
	<g class="st5">
		<path class="st1" d="M214.7,1219c-9.6,8.9-20.1,16.8-31.1,23.8c-11.4,7.2-22.1,14.2-32.1,21.1c-19.7,13.4-38.4,26.7-56.1,39.7
			c-17,12.4-32.5,26.7-46.2,42.6c-13.2,15.6-23.8,33.3-31.1,52.4c-7.6,19.5-11.5,42.5-11.5,69h0.1l120.2-80h0.1
			c11.1-15.2,24.1-28.7,38.9-40.4c14.9-11.7,30.2-22.7,45.9-32.8c15.7-10.2,31.4-20.5,46.9-30.9c15.1-10.1,29.1-21.7,41.6-34.8
			c12.3-12.8,22.2-27.7,29.5-43.9c7.4-16.5,11.1-36.2,11.1-59.2c0-22.1-4.3-42.1-12.8-59.8c-8.1-17.3-19.9-32.6-34.4-44.9
			c-14.8-12.4-31.8-21.9-50.2-28c-19.3-6.6-39.6-9.9-60-9.8c-27.5,0-51.9,4.7-73.1,14c-21.2,9.3-38.8,22.3-52.8,39
			c-14,16.7-24.5,36.2-31.5,58.6c-7,22.3-10,46.5-9.2,72.6h89.2c0-12.3,1.2-24.6,3.6-36.8c2.2-11.8,6.3-23.3,12.1-33.8
			c5.4-9.9,13.2-18.4,22.6-24.7c9.4-6.3,20.9-9.4,34.4-9.4c20.1,0,36.6,6.2,49.5,18.6c12.9,12.4,19.4,29.6,19.4,51.7
			c0,13.9-3.2,26.2-9.5,37.1C232,1200.7,224,1210.5,214.7,1219"/>
		<path class="st1" d="M526,1080.4c4.3-0.8,8.6-1.2,13-1.3c12.7,0,23.4,2.8,32.1,8.5c8.8,5.7,16.2,13.2,21.6,22.1
			c5.9,9.6,10.2,20,12.8,30.9c2.8,11.5,5,23.1,6.6,34.8c1.5,11.3,2.4,22.7,2.6,34.2c0.2,11.1,0.3,20.5,0.3,28.3
			c0,13-0.4,28.7-1.3,47.2c-0.5,11-1.8,22-3.7,32.8h92.3c3.9-23.5,5.8-50.1,5.8-80c0-44.2-4.5-81.4-13.4-111.6
			c-9-30.1-21.2-54.3-36.7-72.5c-15.5-18.2-33.4-31.2-53.8-39c-20.8-7.9-43-11.9-65.2-11.7c-4.4,0-8.7,0.2-13,0.5L526,1080.4z"/>
		<path class="st1" d="M554.2,1399c-5,1-10.1,1.5-15.2,1.5c-18.8,0-33.2-6.1-43.3-18.2s-17.4-26.8-22-43.9
			c-4.6-17.4-7.4-35.3-8.2-53.3c-0.9-18.4-1.3-34.1-1.3-47.2c0-7.8,0.1-17.2,0.3-28.3c0.2-11.1,1-22.4,2.3-34.2
			c0.6-5.5,1.4-11,2.4-16.4h-92.1c-4,23.2-6,49.4-6,78.9c0,45.5,4.5,83.6,13.5,114.2s21.1,55,36.4,73.2c15.3,18.2,33.1,31.2,53.4,39
			c20.6,7.9,42.5,11.8,64.6,11.7c5.2,0,10.2-0.2,15.2-0.6L554.2,1399z"/>
	</g>
</g>
<rect x="997.1" y="1861.1" class="st1" width="75.5" height="79.4"/>
<g>
	<defs>
		<rect id="SVGID_9_" width="1445.7" height="2012.6"/>
	</defs>
	<clipPath id="SVGID_10_">
		<use xlink:href="#SVGID_9_"  style="overflow:visible;"/>
	</clipPath>
	<g class="st6">
		<path class="st1" d="M943.8,1692c-9.6,8.9-20.1,16.8-31.1,23.7c-11.4,7.2-22.1,14.2-32.1,21.2c-19.7,13.4-38.3,26.7-56,39.7
			c-17,12.4-32.5,26.7-46.2,42.6c-13.2,15.6-23.8,33.3-31.1,52.4c-7.7,19.5-11.5,42.5-11.5,69h0.1l120.2-80h0.1
			c11.1-15.2,24.1-28.7,38.9-40.4c14.9-11.7,30.2-22.7,45.9-32.9s31.4-20.5,46.9-30.9c15.1-10.1,29.1-21.7,41.6-34.8
			c12.3-12.8,22.2-27.7,29.5-43.9c7.4-16.5,11.1-36.2,11.1-59.2c0-22.1-4.3-42.1-12.8-59.8c-8.1-17.3-19.9-32.6-34.4-44.9
			c-14.8-12.4-31.8-21.9-50.2-28c-19.3-6.6-39.6-9.8-60-9.8c-27.5,0-51.9,4.7-73.1,14c-21.2,9.3-38.8,22.3-52.8,39
			c-14,16.7-24.5,36.2-31.5,58.6c-7,22.3-10,46.5-9.1,72.5h89.2c0-12.3,1.2-24.7,3.6-36.8c2.2-11.8,6.3-23.3,12.1-33.8
			c5.4-9.9,13.2-18.4,22.6-24.7c9.4-6.3,20.9-9.4,34.4-9.4c20.1,0,36.6,6.2,49.5,18.6s19.3,29.6,19.3,51.7c0,13.9-3.2,26.2-9.5,37.1
			C961.1,1673.6,953.1,1683.4,943.8,1692"/>
		<path class="st1" d="M1255,1553.4c4.3-0.8,8.6-1.2,13-1.3c12.7,0,23.4,2.8,32.1,8.5c8.8,5.7,16.2,13.2,21.6,22.1
			c5.9,9.6,10.2,20,12.8,30.9c2.8,11.5,5,23.1,6.6,34.8c1.5,11.3,2.4,22.7,2.6,34.2c0.2,11.1,0.3,20.5,0.3,28.3
			c0,13-0.4,28.7-1.3,47.2c-0.5,11-1.8,22-3.7,32.8h92.3c3.9-23.5,5.8-50.1,5.8-80c0-44.2-4.5-81.4-13.4-111.6
			c-9-30.1-21.2-54.3-36.7-72.5c-15.5-18.2-33.4-31.2-53.8-39c-20.8-7.9-42.9-11.9-65.2-11.7c-4.4,0-8.7,0.2-13,0.5L1255,1553.4z"/>
		<path class="st1" d="M1283.3,1871.9c-5,1-10.1,1.5-15.3,1.5c-18.8,0-33.2-6.1-43.3-18.2c-10.1-12.1-17.4-26.8-22-43.9
			c-4.6-17.4-7.4-35.3-8.2-53.3c-0.9-18.4-1.3-34.2-1.3-47.2c0-7.8,0.1-17.2,0.3-28.3s1-22.4,2.3-34.2c0.6-5.5,1.4-11,2.4-16.4
			h-92.1c-4,23.2-6,49.4-6,78.9c0,45.5,4.5,83.6,13.4,114.2c9,30.6,21.1,55,36.4,73.2c15.3,18.2,33.1,31.2,53.4,39
			c20.6,7.9,42.5,11.8,64.6,11.7c5.2,0,10.2-0.2,15.3-0.6V1871.9z"/>
	</g>
</g>
<rect x="268.1" y="1861.1" class="st1" width="75.5" height="79.4"/>
<g>
	<defs>
		<rect id="SVGID_11_" width="1445.7" height="2012.6"/>
	</defs>
	<clipPath id="SVGID_12_">
		<use xlink:href="#SVGID_11_"  style="overflow:visible;"/>
	</clipPath>
	<g class="st7">
		<path class="st1" d="M214.7,1692c-9.6,8.9-20.1,16.8-31.1,23.7c-11.4,7.2-22.1,14.2-32.1,21.2c-19.7,13.4-38.4,26.7-56.1,39.7
			c-17,12.4-32.5,26.7-46.2,42.6c-13.2,15.6-23.8,33.3-31.1,52.4c-7.6,19.5-11.5,42.5-11.5,69h0.1l120.2-80h0.1
			c11.1-15.2,24.1-28.7,38.9-40.4c14.9-11.7,30.2-22.7,45.9-32.9s31.4-20.5,46.9-30.9c15.1-10.1,29.1-21.7,41.6-34.8
			c12.3-12.8,22.2-27.7,29.5-43.9c7.4-16.5,11.1-36.2,11.1-59.2c0-22.1-4.3-42.1-12.8-59.8c-8.1-17.3-19.9-32.6-34.4-44.9
			c-14.8-12.4-31.8-21.9-50.2-28c-19.3-6.6-39.6-9.8-60-9.8c-27.5,0-51.9,4.7-73.1,14c-21.2,9.3-38.8,22.3-52.8,39
			c-14,16.7-24.5,36.2-31.5,58.6c-7,22.3-10,46.5-9.2,72.5h89.2c0-12.3,1.2-24.7,3.6-36.8c2.2-11.8,6.3-23.3,12.1-33.8
			c5.4-9.9,13.2-18.4,22.6-24.7c9.4-6.3,20.9-9.4,34.4-9.4c20.1,0,36.6,6.2,49.5,18.6c12.9,12.4,19.4,29.6,19.4,51.7
			c0,13.9-3.2,26.2-9.5,37.1C231.9,1673.6,224,1683.5,214.7,1692"/>
		<path class="st1" d="M526,1553.4c4.3-0.8,8.6-1.2,13-1.3c12.7,0,23.4,2.8,32.1,8.5c8.8,5.7,16.2,13.2,21.6,22.1
			c5.9,9.6,10.2,20,12.8,30.9c2.8,11.5,5,23.1,6.6,34.8c1.5,11.3,2.4,22.7,2.6,34.2c0.2,11.1,0.3,20.5,0.3,28.3
			c0,13-0.4,28.7-1.3,47.2c-0.5,11-1.8,22-3.7,32.8h92.3c3.9-23.5,5.8-50.1,5.8-80c0-44.2-4.5-81.4-13.4-111.6
			c-9-30.1-21.2-54.3-36.7-72.5c-15.5-18.2-33.4-31.2-53.8-39c-20.8-7.9-43-11.9-65.2-11.7c-4.4,0-8.7,0.2-13,0.5L526,1553.4z"/>
		<path class="st1" d="M554.2,1871.9c-5,1-10.1,1.5-15.2,1.5c-18.8,0-33.2-6.1-43.3-18.2c-10-12.1-17.4-26.8-22-43.9
			c-4.6-17.4-7.4-35.3-8.2-53.3c-0.9-18.4-1.3-34.2-1.3-47.2c0-7.8,0.1-17.2,0.3-28.3s1-22.4,2.3-34.2c0.6-5.5,1.4-11,2.4-16.4
			h-92.1c-4,23.2-6,49.4-6,78.9c0,45.5,4.5,83.6,13.5,114.2c9,30.6,21.1,55,36.4,73.2c15.3,18.2,33.1,31.2,53.4,39
			c20.6,7.9,42.5,11.8,64.6,11.7c5.2,0,10.2-0.2,15.2-0.6L554.2,1871.9z"/>
	</g>
</g>
<rect x="997.1" y="442.3" class="st1" width="75.5" height="79.4"/>
<g>
	<defs>
		<rect id="SVGID_13_" width="1445.7" height="2012.6"/>
	</defs>
	<clipPath id="SVGID_14_">
		<use xlink:href="#SVGID_13_"  style="overflow:visible;"/>
	</clipPath>
	<g class="st8">
		<path class="st1" d="M943.8,273.1c-9.6,8.8-20.1,16.8-31.1,23.7c-11.4,7.2-22.1,14.2-32.1,21.1c-19.7,13.5-38.3,26.7-56,39.7
			c-17,12.4-32.5,26.7-46.2,42.6c-13.2,15.6-23.8,33.3-31.1,52.4c-7.7,19.5-11.5,42.5-11.5,69h0.1l120.2-80h0.1
			c11.1-15.2,24.1-28.7,38.9-40.4c14.9-11.7,30.2-22.6,45.9-32.9s31.4-20.5,46.9-30.9c15.1-10.1,29.1-21.7,41.6-34.8
			c12.3-12.8,22.2-27.7,29.5-43.9c7.4-16.5,11.1-36.2,11.1-59.2c0-22.1-4.3-42.1-12.8-59.9c-8.1-17.3-19.9-32.6-34.4-44.9
			C1008,82.5,991,73,972.6,66.9c-19.3-6.6-39.6-9.9-60-9.8c-27.5,0-51.9,4.7-73.1,14c-21.2,9.3-38.8,22.3-52.8,39
			c-14,16.7-24.5,36.2-31.5,58.5c-7,22.4-10,46.6-9.1,72.6h89.2c0-12.3,1.2-24.7,3.6-36.8c2.2-11.9,6.3-23.3,12.1-33.8
			c5.4-9.9,13.2-18.4,22.6-24.7c9.4-6.3,20.9-9.4,34.4-9.4c20.1,0,36.6,6.2,49.5,18.5s19.3,29.6,19.3,51.7c0,13.9-3.2,26.2-9.5,37.1
			C961.1,254.7,953.1,264.6,943.8,273.1"/>
		<path class="st1" d="M1255,134.5c4.3-0.8,8.6-1.2,13-1.3c12.7,0,23.4,2.8,32.1,8.5c8.8,5.7,16.2,13.2,21.6,22.1
			c5.9,9.6,10.2,20,12.8,30.9c2.8,11.5,5,23.1,6.6,34.8c1.5,11.3,2.4,22.7,2.6,34.2c0.2,11.1,0.3,20.5,0.3,28.3
			c0,13-0.4,28.7-1.3,47.2c-0.5,11-1.8,22-3.7,32.9h92.3c3.9-23.5,5.8-50.1,5.8-80c0-44.2-4.5-81.4-13.4-111.6s-21.2-54.3-36.7-72.5
			c-15.5-18.2-33.4-31.2-53.8-39c-20.8-7.9-43-11.9-65.3-11.7c-4.4,0-8.7,0.2-13,0.5L1255,134.5z"/>
		<path class="st1" d="M1283.3,453.1c-5,1-10.1,1.5-15.3,1.5c-18.8,0-33.2-6.1-43.3-18.2c-10.1-12.1-17.4-26.8-22-43.9
			c-4.6-17.4-7.4-35.3-8.2-53.3c-0.9-18.4-1.3-34.1-1.3-47.2c0-7.8,0.1-17.2,0.3-28.3s1-22.4,2.3-34.2c0.6-5.5,1.4-11,2.4-16.4
			h-92.1c-4,23.2-6,49.4-6,78.9c0,45.5,4.5,83.6,13.4,114.2s21.1,55,36.4,73.2c15.3,18.2,33.1,31.2,53.4,39
			c20.6,7.9,42.5,11.8,64.6,11.7c5.2,0,10.2-0.2,15.3-0.6V453.1z"/>
	</g>
</g>
<rect x="268.1" y="442.3" class="st1" width="75.5" height="79.4"/>
<g>
	<defs>
		<rect id="SVGID_15_" width="1445.7" height="2012.6"/>
	</defs>
	<clipPath id="SVGID_16_">
		<use xlink:href="#SVGID_15_"  style="overflow:visible;"/>
	</clipPath>
	<g class="st9">
		<path class="st1" d="M214.7,273.1c-9.6,8.8-20.1,16.8-31.1,23.7c-11.4,7.2-22.1,14.2-32.1,21.1c-19.7,13.5-38.4,26.7-56.1,39.7
			c-17,12.4-32.5,26.7-46.2,42.6c-13.2,15.6-23.8,33.3-31.1,52.4c-7.6,19.5-11.5,42.5-11.5,69h0.1l120.2-80h0.1
			c11.1-15.2,24.1-28.7,38.9-40.4c14.9-11.7,30.2-22.6,45.9-32.9s31.4-20.5,46.9-30.9c15.1-10.1,29.1-21.7,41.6-34.8
			c12.3-12.8,22.2-27.7,29.5-43.9c7.4-16.5,11.1-36.2,11.1-59.2c0-22.1-4.3-42.1-12.8-59.9c-8.1-17.3-19.9-32.6-34.4-44.9
			c-14.8-12.4-31.8-21.9-50.2-28c-19.3-6.6-39.6-9.9-60-9.8c-27.5,0-51.9,4.7-73.1,14s-38.8,22.3-52.8,39
			c-14,16.7-24.5,36.2-31.5,58.5s-10,46.5-9.2,72.5h89.2c0-12.3,1.2-24.7,3.6-36.8c2.2-11.8,6.3-23.3,12.1-33.8
			c5.5-9.9,13.2-18.4,22.6-24.7c9.4-6.3,20.9-9.4,34.4-9.4c20.1,0,36.6,6.2,49.5,18.5c12.9,12.4,19.4,29.6,19.4,51.7
			c0,13.9-3.2,26.2-9.5,37.1C232,254.8,224,264.6,214.7,273.1"/>
		<path class="st1" d="M526,134.5c4.3-0.8,8.6-1.2,13-1.3c12.7,0,23.4,2.8,32.1,8.5c8.8,5.7,16.2,13.2,21.6,22.1
			c5.9,9.6,10.2,20,12.8,30.9c2.8,11.5,5,23.1,6.6,34.8c1.5,11.3,2.4,22.7,2.6,34.2c0.2,11.1,0.3,20.5,0.3,28.3
			c0,13-0.4,28.7-1.3,47.2c-0.5,11-1.8,22-3.7,32.9h92.3c3.9-23.5,5.8-50.1,5.8-80c0-44.2-4.5-81.4-13.4-111.6
			c-9-30.1-21.2-54.3-36.7-72.6c-15.5-18.2-33.4-31.2-53.8-39c-20.8-7.9-43-11.9-65.2-11.7c-4.4,0-8.7,0.2-13,0.5L526,134.5z"/>
		<path class="st1" d="M554.2,453.1c-5,1-10.1,1.5-15.2,1.5c-18.8,0-33.2-6.1-43.3-18.2s-17.4-26.8-22-43.9
			c-4.6-17.4-7.3-35.3-8.1-53.3c-0.9-18.4-1.3-34.2-1.3-47.2c0-7.8,0.1-17.2,0.3-28.3c0.2-11.1,1-22.4,2.3-34.2
			c0.6-5.5,1.4-11,2.4-16.4h-92.1c-4,23.2-6,49.4-6,78.9c0,45.5,4.5,83.6,13.5,114.2s21.1,55,36.4,73.2c15.3,18.2,33.1,31.2,53.4,39
			c20.6,7.9,42.5,11.8,64.6,11.7c5.2,0,10.2-0.2,15.2-0.6L554.2,453.1z"/>
	</g>
</g>
<rect x="632.4" y="1585.1" class="st1" width="13.1" height="4.6"/>
<polygon class="st1" points="632.4,1605.3 632.4,1599.2 644.4,1599.2 644.4,1595 632.4,1595 632.4,1589.7 626.9,1589.7 
	626.9,1605.3 632.4,1605.3 632.4,1609.9 645.7,1609.9 645.7,1605.3 "/>
<rect x="616.7" y="1585.1" class="st1" width="7.4" height="4.6"/>
<rect x="603.8" y="1585.1" class="st1" width="7.4" height="4.6"/>
<rect x="611.2" y="1589.7" class="st1" width="5.5" height="20.2"/>
<polygon class="st1" points="826.1,1593.3 831.4,1601.7 836.7,1601.7 831.5,1593.3 "/>
<polygon class="st1" points="826.1,1585.1 821,1585.1 821,1609.9 826.1,1609.9 826.1,1593.3 "/>
<polygon class="st1" points="836.8,1585.1 836.8,1601.7 836.8,1601.7 836.8,1609.9 841.9,1609.9 841.9,1585.1 "/>
<polygon class="st1" points="809.5,1585.1 806.7,1585.1 806.7,1591.2 809.9,1600.3 803.4,1600.3 806,1593 801,1593 794.6,1609.9 
	800.1,1609.9 802,1604.4 811.3,1604.4 813.2,1609.9 818.8,1609.9 "/>
<rect x="765.7" y="1592.9" class="st1" width="5.1" height="17"/>
<rect x="787.3" y="1592.9" class="st1" width="5.1" height="17"/>
<polygon class="st1" points="787.3,1592.3 790,1585.1 784.7,1585.1 779.2,1602.2 779.2,1602.2 773.4,1585.1 768,1585.1 
	770.9,1592.5 770.9,1592.5 777,1609.9 781.2,1609.9 787.2,1592.3 "/>
<polygon class="st1" points="661.8,1585.1 659,1585.1 659,1591.2 662.1,1600.3 655.6,1600.3 658.2,1593 653.2,1593 646.8,1609.9 
	652.3,1609.9 654.2,1604.4 663.5,1604.4 665.4,1609.9 671,1609.9 "/>
<rect x="673.2" y="1592.9" class="st1" width="5.1" height="17"/>
</svg>
